<?xml version="1.0" encoding="UTF-8"?>
<svg width="59px" height="58px" viewBox="0 0 59 58" version="1.1" xmlns="http://www.w3.org/2000/svg" xmlns:xlink="http://www.w3.org/1999/xlink">
    <title>Group 8</title>
    <g id="HOME" stroke="none" stroke-width="1" fill="none" fill-rule="evenodd">
        <g id="Group-8">
            <g id="Group-6">
                <rect id="Rectangle" x="0" y="0" width="58" height="58"></rect>
                <g id="Group-5" transform="translate(0.000000, 14.298000)" fill="#F1C40F" fill-rule="nonzero">
                    <path d="M13,20.702 L13,16.7877143 L5.2,13.3305714 C4.82318841,13.1591429 4.42753623,13.0210476 4.01304348,12.9162857 C3.59855072,12.8115238 3.26884058,12.7400952 3.02391304,12.702 C3.26884058,12.6639048 3.59855072,12.5877143 4.01304348,12.4734286 C4.42753623,12.3591429 4.82318841,12.2162857 5.2,12.0448571 L5.2,12.0448571 L13,8.58771429 L13,4.702 L0,10.6734286 L0,14.7591429 L13,20.702 Z M25.5,3.702 C26.2592593,3.702 26.8657407,3.52251282 27.3194444,3.16353846 C27.7731481,2.8045641 28,2.31738462 28,1.702 C28,1.08661538 27.7731481,0.599435897 27.3194444,0.240461538 C26.8657407,-0.118512821 26.2592593,-0.298 25.5,-0.298 C24.7407407,-0.298 24.1342593,-0.118512821 23.6805556,0.240461538 C23.2268519,0.599435897 23,1.08661538 23,1.702 C23,2.31738462 23.2268519,2.8045641 23.6805556,3.16353846 C24.1342593,3.52251282 24.7407407,3.702 25.5,3.702 Z M21.9902439,26.702 C23.8504065,26.702 25.3170732,26.1631872 26.3902439,25.0855616 C27.4634146,24.0079361 28,22.5376164 28,20.6746027 L28,20.6746027 L28,6.702 L17.5365854,6.702 L17.5365854,10.4006301 L23.9756098,10.4006301 L23.9756098,20.5376164 C23.9756098,21.26821 23.7654472,21.8618174 23.345122,22.3184384 C22.9247967,22.7750594 22.3747967,23.0033699 21.695122,23.0033699 L21.695122,23.0033699 L17,23.0033699 L17,26.702 L21.9902439,26.702 Z" id="&lt;j"></path>
                </g>
            </g>
            <path d="M32.1712963,41 L45,16 L40.8287037,16 L28,41 L32.1712963,41 Z M45,36 L58.375969,30.4017857 L59,26.5714286 L47.3875969,21 L46.8178295,24.5625 L53.7906977,27.8035714 C54.1343669,27.9642857 54.496124,28.09375 54.875969,28.1919643 C55.255814,28.2901786 55.5542636,28.3571429 55.7713178,28.3928571 C55.5361757,28.4285714 55.2105943,28.5 54.7945736,28.6071429 C54.378553,28.7142857 53.9715762,28.8482143 53.5736434,29.0089286 L53.5736434,29.0089286 L45.5697674,32.25 L45,36 Z" id="/&gt;" fill="#FFFFFF" fill-rule="nonzero"></path>
        </g>
    </g>
</svg>