<?xml version="1.0" encoding="UTF-8"?>
<svg width="169px" height="27px" viewBox="0 0 169 27" version="1.1" xmlns="http://www.w3.org/2000/svg" xmlns:xlink="http://www.w3.org/1999/xlink">
    <title>&lt;jGraffin/&gt;</title>
    <g id="HOME" stroke="none" stroke-width="1" fill="none" fill-rule="evenodd">
        <g id="Desktop-HD" transform="translate(-166.000000, -34.000000)" fill-rule="nonzero">
            <g id="header" transform="translate(166.820000, 34.420000)">
                <g id="&lt;jGraffin/&gt;" transform="translate(-0.000000, 0.000000)">
                    <path d="M11.96,20.306 L11.96,16.744 L4.784,13.598 C4.43733333,13.442 4.07333333,13.3163333 3.692,13.221 C3.31066667,13.1256667 3.00733333,13.0606667 2.782,13.026 C3.00733333,12.9913333 3.31066667,12.922 3.692,12.818 C4.07333333,12.714 4.43733333,12.584 4.784,12.428 L4.784,12.428 L11.96,9.282 L11.96,5.746 L0,11.18 L0,14.898 L11.96,20.306 Z M24.05,5.018 C24.7606667,5.018 25.3283333,4.836 25.753,4.472 C26.1776667,4.108 26.39,3.614 26.39,2.99 C26.39,2.366 26.1776667,1.872 25.753,1.508 C25.3283333,1.144 24.7606667,0.962 24.05,0.962 C23.3393333,0.962 22.7716667,1.144 22.347,1.508 C21.9223333,1.872 21.71,2.366 21.71,2.99 C21.71,3.614 21.9223333,4.108 22.347,4.472 C22.7716667,4.836 23.3393333,5.018 24.05,5.018 Z M20.176,26.26 C21.9786667,26.26 23.4,25.7486667 24.44,24.726 C25.48,23.7033333 26,22.308 26,20.54 L26,20.54 L26,7.28 L15.86,7.28 L15.86,10.79 L22.1,10.79 L22.1,20.41 C22.1,21.1033333 21.8963333,21.6666667 21.489,22.1 C21.0816667,22.5333333 20.5486667,22.75 19.89,22.75 L19.89,22.75 L15.34,22.75 L15.34,26.26 L20.176,26.26 Z" id="&lt;j" fill="#F1C40F"></path>
                    <path d="M36.14,21.84 C37.2146667,21.84 38.1853333,21.6146667 39.052,21.164 C39.9186667,20.7133333 40.638,20.0806667 41.21,19.266 C41.782,18.4513333 42.1546667,17.4893333 42.328,16.38 L42.328,16.38 L42.952,12.324 L37.154,12.324 L36.972,13.52 L41.47,13.52 L41.028,16.38 C40.82,17.6973333 40.3,18.7416667 39.468,19.513 C38.636,20.2843333 37.596,20.67 36.348,20.67 C35.1346667,20.67 34.2333333,20.3103333 33.644,19.591 C33.0546667,18.8716667 32.8553333,17.888 33.046,16.64 L33.046,16.64 L34.502,7.54 C34.6926667,6.292 35.1953333,5.30833333 36.01,4.589 C36.8246667,3.86966667 37.8386667,3.51 39.052,3.51 C40.2826667,3.51 41.197,3.89133333 41.795,4.654 C42.393,5.41666667 42.588,6.46533333 42.38,7.8 L42.38,7.8 L43.68,7.8 C43.94,6.136 43.667,4.81 42.861,3.822 C42.055,2.834 40.846,2.34 39.234,2.34 C37.6566667,2.34 36.3176667,2.808 35.217,3.744 C34.1163333,4.68 33.4446667,5.94533333 33.202,7.54 L33.202,7.54 L31.746,16.64 C31.5033333,18.2173333 31.7806667,19.4783333 32.578,20.423 C33.3753333,21.3676667 34.5626667,21.84 36.14,21.84 Z M48.438,21.58 L49.92,12.22 C50.128,10.9373333 50.6176667,9.93633333 51.389,9.217 C52.1603333,8.49766667 53.1266667,8.138 54.288,8.138 C55.4666667,8.138 56.3246667,8.49766667 56.862,9.217 C57.3993333,9.93633333 57.564,10.9373333 57.356,12.22 L57.356,12.22 L57.226,13 L58.656,13 L58.786,12.22 C59.0286667,10.6253333 58.786,9.36 58.058,8.424 C57.33,7.488 56.2033333,7.02 54.678,7.02 C53.7246667,7.02 52.8926667,7.21066667 52.182,7.592 C51.4713333,7.97333333 50.9166667,8.51933333 50.518,9.23 L50.518,9.23 L50.388,9.23 L50.7,7.28 L49.4,7.28 L47.138,21.58 L48.438,21.58 Z M66.846,21.84 C67.7646667,21.84 68.5966667,21.645 69.342,21.255 C70.0873333,20.865 70.668,20.3233333 71.084,19.63 L71.084,19.63 L71.188,19.63 L70.876,21.58 L72.176,21.58 L74.438,7.28 L73.138,7.28 L72.826,9.23 L72.748,9.23 C72.54,8.53666667 72.1283333,7.995 71.513,7.605 C70.8976667,7.215 70.1306667,7.02 69.212,7.02 C68.2586667,7.02 67.392,7.23666667 66.612,7.67 C65.832,8.10333333 65.1863333,8.71 64.675,9.49 C64.1636667,10.27 63.8213333,11.18 63.648,12.22 L63.648,12.22 L62.946,16.666 C62.7033333,18.226 62.9373333,19.4783333 63.648,20.423 C64.3586667,21.3676667 65.4246667,21.84 66.846,21.84 Z M67.288,20.722 C66.1266667,20.722 65.2816667,20.3623333 64.753,19.643 C64.2243333,18.9236667 64.0553333,17.9313333 64.246,16.666 L64.246,16.666 L64.948,12.22 C65.1386667,10.9373333 65.6196667,9.93633333 66.391,9.217 C67.1623333,8.49766667 68.1286667,8.138 69.29,8.138 C70.4686667,8.138 71.3223333,8.49766667 71.851,9.217 C72.3796667,9.93633333 72.5486667,10.9373333 72.358,12.22 L72.358,12.22 L71.656,16.666 C71.4653333,17.9313333 70.9843333,18.9236667 70.213,19.643 C69.4416667,20.3623333 68.4666667,20.722 67.288,20.722 Z M78.728,26.26 C79.7853333,26.26 80.6563333,25.9696667 81.341,25.389 C82.0256667,24.8083333 82.4546667,24.0153333 82.628,23.01 L82.628,23.01 L84.786,9.906 L90.48,9.906 L90.662,8.736 L84.968,8.736 L85.436,5.85 C85.54,5.19133333 85.8,4.68 86.216,4.316 C86.632,3.952 87.1693333,3.77 87.828,3.77 L87.828,3.77 L91.442,3.77 L91.65,2.6 L88.036,2.6 C86.9786667,2.6 86.1076667,2.886 85.423,3.458 C84.7383333,4.03 84.3093333,4.82733333 84.136,5.85 L84.136,5.85 L83.668,8.736 L78.884,8.736 L78.702,9.906 L83.486,9.906 L81.328,23.01 C81.224,23.6686667 80.964,24.18 80.548,24.544 C80.132,24.908 79.5946667,25.09 78.936,25.09 L78.936,25.09 L76.388,25.09 L76.18,26.26 L78.728,26.26 Z M94.328,26.26 C95.3853333,26.26 96.2563333,25.9696667 96.941,25.389 C97.6256667,24.8083333 98.0546667,24.0153333 98.228,23.01 L98.228,23.01 L100.386,9.906 L106.08,9.906 L106.262,8.736 L100.568,8.736 L101.036,5.85 C101.14,5.19133333 101.4,4.68 101.816,4.316 C102.232,3.952 102.769333,3.77 103.428,3.77 L103.428,3.77 L107.042,3.77 L107.25,2.6 L103.636,2.6 C102.578667,2.6 101.707667,2.886 101.023,3.458 C100.338333,4.03 99.9093333,4.82733333 99.736,5.85 L99.736,5.85 L99.268,8.736 L94.484,8.736 L94.302,9.906 L99.086,9.906 L96.928,23.01 C96.824,23.6686667 96.564,24.18 96.148,24.544 C95.732,24.908 95.1946667,25.09 94.536,25.09 L94.536,25.09 L91.988,25.09 L91.78,26.26 L94.328,26.26 Z M117.104,4.55 C117.554667,4.55 117.940333,4.42 118.261,4.16 C118.581667,3.9 118.776667,3.55333333 118.846,3.12 C118.915333,2.68666667 118.833,2.34 118.599,2.08 C118.365,1.82 118.022667,1.69 117.572,1.69 C117.121333,1.69 116.735667,1.82 116.415,2.08 C116.094333,2.34 115.899333,2.68666667 115.83,3.12 C115.760667,3.55333333 115.843,3.9 116.077,4.16 C116.311,4.42 116.653333,4.55 117.104,4.55 Z M120.146,21.58 L120.328,20.41 L115.414,20.41 L117.494,7.28 L111.618,7.28 L111.436,8.45 L116.012,8.45 L114.114,20.41 L108.888,20.41 L108.706,21.58 L120.146,21.58 Z M125.996,21.58 L127.478,12.22 C127.668667,10.9546667 128.158333,9.958 128.947,9.23 C129.735667,8.502 130.702,8.138 131.846,8.138 C132.972667,8.138 133.800333,8.49766667 134.329,9.217 C134.857667,9.93633333 135.018,10.9373333 134.81,12.22 L134.81,12.22 L133.328,21.58 L134.628,21.58 L136.136,12.038 C136.378667,10.4953333 136.149,9.27333333 135.447,8.372 C134.745,7.47066667 133.692,7.02 132.288,7.02 C131.265333,7.02 130.368333,7.26266667 129.597,7.748 C128.825667,8.23333333 128.249333,8.892 127.868,9.724 L127.868,9.724 L128.258,7.28 L126.958,7.28 L124.696,21.58 L125.996,21.58 Z M140.92,24.44 L153.972,7.10542736e-15 L152.516,7.10542736e-15 L139.464,24.44 L140.92,24.44 Z M155.714,19.5 L167.57,13.598 L167.752,12.402 L157.768,6.5 L157.534,7.826 L164.476,11.882 C164.805333,12.0726667 165.156333,12.272 165.529,12.48 C165.901667,12.688 166.200667,12.8526667 166.426,12.974 C166.166,13.0953333 165.815,13.26 165.373,13.468 C164.931,13.676 164.510667,13.8753333 164.112,14.066 L164.112,14.066 L155.922,18.07 L155.714,19.5 Z" id="Graffin/&gt;" fill="#FFFFFF"></path>
                </g>
            </g>
        </g>
    </g>
</svg>